<svg width="182" height="88" viewBox="0 0 182 88" fill="none" xmlns="http://www.w3.org/2000/svg">
<path d="M181.998 0.469971L0 0.469971L0 87.4679H181.998V0.469971Z" fill="white"/>
<path fill-rule="evenodd" clip-rule="evenodd" d="M2.94141 3.36804L178.722 3.36804V84.7553H2.94141V3.36804ZM5.33614 5.67111H176.324V82.4523H5.33614V5.67111Z" fill="#9B9B9B"/>
<path d="M173.043 8.84212C172.696 8.5205 172.214 8.32022 171.683 8.32022C171.153 8.32022 170.671 8.52052 170.324 8.84212C169.977 9.16378 169.76 9.6083 169.76 10.0998C169.76 10.593 169.977 11.0375 170.324 11.3592C170.671 11.6808 171.153 11.8811 171.683 11.8811C172.214 11.8811 172.696 11.6808 173.043 11.3607C173.39 11.0375 173.605 10.593 173.605 10.0998C173.605 9.6083 173.39 9.16378 173.043 8.84212ZM171.683 8.04407C172.294 8.04407 172.851 8.2747 173.253 8.64639C173.656 9.01962 173.903 9.53399 173.903 10.0998C173.903 10.6673 173.656 11.1817 173.253 11.5534C172.851 11.9266 172.294 12.1572 171.683 12.1572C171.071 12.1572 170.516 11.9266 170.114 11.5549C169.711 11.1817 169.464 10.6673 169.464 10.0999C169.464 9.53401 169.711 9.01964 170.114 8.64641C170.516 8.2747 171.071 8.04407 171.683 8.04407Z" fill="#9B9B9B"/>
<path d="M171.735 9.10339C172.103 9.10339 172.418 9.22489 172.418 9.619C172.418 9.90495 172.213 10.079 171.925 10.1116C172.097 10.1309 172.311 10.1806 172.361 10.4147C172.38 10.4917 172.38 10.5116 172.388 10.7458C172.391 10.8503 172.4 11.0102 172.436 11.0651H172.373C172.335 11.051 172.326 10.6517 172.317 10.5391C172.287 10.1724 172.029 10.142 171.669 10.142H170.958V11.0651H170.896V9.10339H171.735ZM170.958 10.0902H171.654C171.996 10.0902 172.359 10.0072 172.359 9.619C172.359 9.236 172.046 9.15302 171.711 9.15302H170.958V10.0902Z" fill="#9B9B9B"/>
<path d="M52.6791 12.2L45.1445 28.5509L51.431 28.4462V69.7612H46.2468V75.7951H51.431H58.5693H61.9386V69.7612H58.5693V12.2H52.6791Z" fill="#F6C80E"/>
<path d="M13.4233 12.2V41.9705H20.6303V29.3186H30.1617L38.5891 41.9705H47.1917L36.1485 25.9823L46.4349 12.2H38.0649L29.9881 23.1814H20.6303V12.2H13.4233Z" fill="#05B8BD"/>
<path d="M14.7453 54.1147V49.812H20.552V55.1904H14.7453V54.1147ZM15.9067 56.2661H21.7133V48.7363H13.584V56.2661H15.9067Z" fill="black"/>
<path d="M17.068 62.72V61.6444H15.9067V62.72H14.7453V61.6444H15.9067V59.4929H14.7453V57.3416H13.584V67.0229H14.7453V63.7957H15.9067V64.8714H18.2293V63.7957H17.068V62.72Z" fill="black"/>
<path d="M20.5515 70.2488V74.5516H14.7465V69.1731H20.5515V70.2488ZM19.3902 68.0973H13.5835V75.6272H21.7128V68.0973H19.3902Z" fill="black"/>
<path d="M18.2293 54.1149H19.3907V50.8894H15.9067V54.1149H18.2293Z" fill="black"/>
<path d="M17.068 58.4172H21.7133V57.3416H15.9067V59.4929H17.068V58.4172Z" fill="black"/>
<path d="M18.2293 65.9469H15.9067V67.0226H18.2293V65.9469Z" fill="black"/>
<path d="M17.068 70.2495H15.9067V73.4766H19.3907V70.2495H17.068Z" fill="black"/>
<path d="M21.7127 64.8708V63.7951H20.5514V62.7195H24.0354V58.4182H22.8741V60.568H21.7127V61.6438H20.5514V60.568H21.7127V59.4939H17.0674V60.568H19.3901V61.6438H18.2287V63.7951H19.3901V65.9466H20.5514V64.8708H21.7127Z" fill="black"/>
<path d="M22.8744 64.8712H21.7131V65.9469H20.5518V67.0226H22.8744V64.8712Z" fill="black"/>
<path d="M26.3585 58.4174V57.3418H25.1972V56.2661H24.0359V54.1147H25.1972V51.9633H24.0359V50.8876H22.8745V57.3418H24.0359V58.4174H26.3585Z" fill="black"/>
<path d="M24.0353 62.72V63.7957H22.874V64.8714H25.1966V63.7957H26.3579V62.72H24.0353Z" fill="black"/>
<path d="M26.3585 65.9468V64.8712H25.1972V67.0226H22.8745V68.0983H26.3585V65.9468Z" fill="black"/>
<path d="M25.1966 70.2496H24.0353V69.174H22.874V73.4767H24.0353V72.4011H25.1966V73.4767H24.0353V74.5525H26.3579V71.3253H25.1966V70.2496Z" fill="black"/>
<path d="M24.0351 74.5513H22.8745V75.627H24.0351V74.5513Z" fill="black"/>
<path d="M25.1965 49.8129H26.3578V51.9643H28.6805V50.8886H27.5192V49.8129H28.6805V50.8886H31.0031V51.9643H28.6805V53.04H32.1645V51.9643H33.3258V49.8129H29.8418V48.7372H24.0352V50.8886H25.1965V49.8129Z" fill="black"/>
<path d="M26.3581 55.1912H27.5195V54.1155H25.1968V56.2669H26.3581V55.1912Z" fill="black"/>
<path d="M29.8416 56.266V57.3417H27.519V58.4174H28.6803V59.493H27.519V58.4174H26.3576V59.493H25.1963V61.6444H26.3576V60.5688H29.8416V61.6444H28.6803V62.7202H27.519V63.7959H29.8416V62.7202H31.003V60.5688H32.1643V61.6444H33.3256V62.7202H35.6482V60.5688H33.3256V58.4174H32.1643V59.493H29.8416V58.4174H31.003V55.1903H29.8416V56.266Z" fill="black"/>
<path d="M39.1315 73.4754H40.2928V72.4013H41.4542V74.5527H39.1315V73.4754ZM36.8089 68.0985V70.2499H33.3249V67.0228H36.8089V68.0985ZM37.9702 63.7957H36.8089V62.7201H35.6475V63.7957H34.4862V64.8714H35.6475V65.9471H33.3249V62.72H32.1636V63.7957H29.8409V65.9471H32.1636V67.0228H31.0023V68.0985H32.1636V69.1742H31.0023V68.0985H29.8409V65.9471H28.6796V64.8714H27.5199V67.0228H28.6796V68.0985H26.3586V69.1742H25.1973V70.2498H26.3586V71.3255H27.5199V69.1742H29.8409V70.2498H31.0023V72.4012H29.8409V71.3255H27.5199V72.4012H28.6796V73.4754H27.5199V75.6268H28.6796V74.5527H29.8409V73.4754H32.1636V72.4012H35.6475V71.3255H36.8089V72.4012H37.9702V73.4754H32.1636V74.5527H33.3249V75.6268H42.6155V70.2498H39.1315V71.3255H37.9702V70.2498H39.1315V69.1742H37.9702V68.0985H39.1315V67.0228H37.9702V64.8713H39.1315V62.72H37.9702V63.7957Z" fill="black"/>
<path d="M27.519 61.6443H26.3584V62.72H27.519V61.6443Z" fill="black"/>
<path d="M28.6796 55.1903H27.519V56.2659H28.6796V55.1903Z" fill="black"/>
<path d="M29.8408 54.1155H28.6802V55.1912H29.8408V54.1155Z" fill="black"/>
<path d="M31.0024 74.5513H29.8418V75.627H31.0024V74.5513Z" fill="black"/>
<path d="M32.1635 54.1155H31.0029V55.1912H32.1635V54.1155Z" fill="black"/>
<path d="M33.3247 53.0389H32.1641V54.1146H33.3247V53.0389Z" fill="black"/>
<path d="M33.3247 55.1903H32.1641V57.3417H33.3247V55.1903Z" fill="black"/>
<path d="M41.4537 50.8886V55.1915H35.6471V49.813H41.4537V50.8886ZM41.4537 48.7372H34.4858V56.2672H42.615V48.7372H41.4537Z" fill="black"/>
<path d="M36.8089 61.6444V62.7201H37.9702V60.5687H39.1316V59.4929H36.8089V58.4172H40.2929V57.3416H34.4863V58.4172H35.6476V60.5687H36.8089V61.6444Z" fill="black"/>
<path d="M35.648 68.0983H34.4858V69.174H35.648V68.0983Z" fill="black"/>
<path d="M37.97 50.8885H36.8086V54.1141H40.2926V50.8885H37.97Z" fill="black"/>
<path d="M41.4539 58.4172H40.2926V60.5687H41.4539V61.6443H39.1313V62.7201H40.2926V64.8699H41.4539V65.9471H42.6153V63.7957H41.4539V62.7201H42.6153V59.4929H41.4539V58.4172Z" fill="black"/>
<path d="M40.2919 65.9469H39.1313V67.0226H40.2919V65.9469Z" fill="black"/>
<path d="M40.2926 69.174H42.6153V68.0983H39.1313V69.174H40.2926Z" fill="black"/>
<path d="M64.5068 12.199V41.9696H86.7684C92.8683 41.9696 97.3448 37.8246 97.3448 32.7117C97.3448 29.0506 95.6004 26.6276 92.6357 25.2287C94.3228 24.1516 95.1368 22.3203 95.1368 20.1674C95.1368 15.3229 91.0091 12.199 85.1976 12.199H64.5068ZM71.7728 18.2284H84.8487C87.291 18.2284 88.0444 19.6834 88.0444 20.9745C88.0444 22.3203 86.9994 23.6661 85.4302 23.6661H71.7728V18.2284ZM71.7728 29.5345H86.7078C88.8012 29.5345 90.254 30.7726 90.254 32.7117C90.254 34.5414 88.8601 35.8871 86.5358 35.8871H71.7728V29.5345Z" fill="#91241F"/>
<path d="M102.169 12.2V41.9705H132.157V35.7773H109.435V29.8571H129.135V23.7748H109.435V18.284H131.342V12.2H102.169Z" fill="#9B9B9B"/>
<path d="M137.56 12.2V41.9705H144.826V35.3479H156.798L160.576 41.9705H168.48L163.54 33.7882C167.317 31.9023 169.759 28.4583 169.759 23.8824C169.759 16.8836 164.062 12.2 156.506 12.2H137.56ZM144.826 18.3371H156.218C159.936 18.3371 162.493 20.4384 162.493 23.8824C162.493 27.328 159.936 29.2108 156.218 29.2108H144.826V18.3371Z" fill="#1C556E"/>
<path d="M71.1983 61.5532C71.1983 55.6817 75.3587 52.1269 80.7034 52.1269C86.0465 52.1269 90.2118 55.6817 90.2118 61.5532C90.2118 67.4263 86.0465 70.9781 80.7034 70.9781C75.3587 70.9781 71.1983 67.4263 71.1983 61.5532ZM96.6343 61.5532C96.6343 52.5926 89.3355 46.6194 80.7034 46.6194C72.0697 46.6194 64.7725 52.5926 64.7725 61.5532C64.7725 70.5154 72.0697 76.4901 80.7034 76.4901C89.3355 76.4901 96.6343 70.5154 96.6343 61.5532Z" fill="#211E22"/>
<path d="M100.403 47.3126V75.7951H107.242V56.5828L125.648 75.7951H132.265V47.3126H125.373V66.4719L106.967 47.3126H100.403Z" fill="#211E22"/>
<path d="M138.195 47.3126V75.7951H166.887V69.8704H145.146V64.2052H163.998V58.3851H145.146V53.1311H166.109V47.3126H138.195Z" fill="#211E22"/>
</svg>
